<svg width="66" height="83" viewBox="0 0 66 83" fill="none" xmlns="http://www.w3.org/2000/svg">
<path d="M63.8376 3.00596C63.4783 1.56873 53.1049 2.45233 51.6579 2.45233C45.9465 2.45233 40.9906 3.04852 35.6027 5.09743C32.8879 6.12983 29.8036 7.30617 27.5 9C25.1167 10.7524 23.6787 11.9213 21.2085 13.5248C16.7805 16.3991 14.0436 19.723 11.2432 24.0437C2.67455 37.2639 -1.3167 57.323 7.15252 71.6555C8.20928 73.4439 12.9884 77.8655 12.3197 80.2059C12.0022 81.3173 8.29095 79.5191 7.64464 79.3755C6.26784 79.0695 5.24665 78.8526 3.76926 78.8526C1.23203 78.8526 6.05916 78.8598 6.8142 79.1294C8.22067 79.6318 9.65951 80.0643 10.9664 80.7903C12.8231 81.8218 13.1285 81.8685 13.7345 79.9291C14.1548 78.5841 16.0878 71.8633 14.565 71.1019" stroke="#111111" stroke-width="3" stroke-linecap="round"/>
</svg>
