<svg width="339" height="86" viewBox="0 0 339 86" fill="none" xmlns="http://www.w3.org/2000/svg">
<path d="M85.0986 18.7715C71.0198 4.69265 42.424 23.9025 32.5376 33.7889C24.1711 42.1554 21.4995 47.4231 17.7983 59.0961C17.4637 60.1514 10.62 80.788 15.0173 80.788C17.8281 80.788 21.2992 70.0564 23.7774 67.5782C30.891 60.4646 22.4828 71.3757 20.0231 73.8354C14.3109 79.5476 15.3274 79.6595 11.2629 75.0869C8.79179 72.3069 0.0384788 61.4111 3.75417 70.0811" stroke="#111111" stroke-width="3" stroke-linecap="round"/>
<path d="M104.078 15.4191V6.69185H106.044V8.17481H106.146C106.328 7.67481 106.629 7.28465 107.05 7.00435C107.47 6.72026 107.972 6.57821 108.555 6.57821C109.146 6.57821 109.644 6.72215 110.05 7.01003C110.459 7.29412 110.747 7.68238 110.913 8.17481H111.004C111.197 7.68996 111.523 7.30359 111.982 7.01571C112.444 6.72405 112.991 6.57821 113.624 6.57821C114.427 6.57821 115.082 6.832 115.589 7.33958C116.097 7.84715 116.351 8.58768 116.351 9.56117V15.4191H114.288V9.87935C114.288 9.33768 114.144 8.94185 113.857 8.69185C113.569 8.43806 113.216 8.31117 112.8 8.31117C112.304 8.31117 111.915 8.46647 111.635 8.77708C111.358 9.0839 111.22 9.48352 111.22 9.97594V15.4191H109.203V9.79412C109.203 9.34337 109.067 8.98352 108.794 8.71458C108.525 8.44564 108.173 8.31117 107.737 8.31117C107.442 8.31117 107.173 8.38693 106.93 8.53844C106.688 8.68617 106.495 8.8964 106.351 9.16912C106.207 9.43806 106.135 9.75246 106.135 10.1123V15.4191H104.078Z" fill="#111111"/>
<path d="M122.244 15.5896C121.392 15.5896 120.653 15.4021 120.028 15.0271C119.403 14.6521 118.919 14.1275 118.574 13.4532C118.233 12.779 118.062 11.9911 118.062 11.0896C118.062 10.1881 118.233 9.39829 118.574 8.72026C118.919 8.04223 119.403 7.51571 120.028 7.14071C120.653 6.76571 121.392 6.57821 122.244 6.57821C123.097 6.57821 123.835 6.76571 124.46 7.14071C125.085 7.51571 125.568 8.04223 125.909 8.72026C126.254 9.39829 126.426 10.1881 126.426 11.0896C126.426 11.9911 126.254 12.779 125.909 13.4532C125.568 14.1275 125.085 14.6521 124.46 15.0271C123.835 15.4021 123.097 15.5896 122.244 15.5896ZM122.256 13.9419C122.718 13.9419 123.104 13.815 123.415 13.5612C123.725 13.3036 123.956 12.9589 124.108 12.5271C124.263 12.0953 124.341 11.6142 124.341 11.0839C124.341 10.5498 124.263 10.0669 124.108 9.63503C123.956 9.19943 123.725 8.85284 123.415 8.59526C123.104 8.33768 122.718 8.2089 122.256 8.2089C121.782 8.2089 121.388 8.33768 121.074 8.59526C120.763 8.85284 120.53 9.19943 120.375 9.63503C120.223 10.0669 120.148 10.5498 120.148 11.0839C120.148 11.6142 120.223 12.0953 120.375 12.5271C120.53 12.9589 120.763 13.3036 121.074 13.5612C121.388 13.815 121.782 13.9419 122.256 13.9419Z" fill="#111111"/>
<path d="M135.67 6.69185L132.562 15.4191H130.29L127.182 6.69185H129.375L131.381 13.1748H131.472L133.483 6.69185H135.67Z" fill="#111111"/>
<path d="M140.661 15.5896C139.786 15.5896 139.03 15.4078 138.393 15.0441C137.761 14.6767 137.274 14.1578 136.933 13.4873C136.592 12.8131 136.422 12.0195 136.422 11.1066C136.422 10.2089 136.592 9.42102 136.933 8.74299C137.278 8.06117 137.759 7.53087 138.376 7.15208C138.994 6.7695 139.719 6.57821 140.553 6.57821C141.09 6.57821 141.598 6.66534 142.075 6.83958C142.556 7.01003 142.981 7.27518 143.348 7.63503C143.719 7.99488 144.011 8.45321 144.223 9.01003C144.435 9.56306 144.541 10.2222 144.541 10.9873V11.618H137.388V10.2316H142.57C142.566 9.83768 142.481 9.48731 142.314 9.18049C142.147 8.86988 141.914 8.62556 141.615 8.44753C141.32 8.2695 140.975 8.18049 140.581 8.18049C140.161 8.18049 139.791 8.28276 139.473 8.48731C139.155 8.68806 138.907 8.95321 138.729 9.28276C138.554 9.60852 138.465 9.96647 138.462 10.3566V11.5669C138.462 12.0744 138.554 12.51 138.74 12.8737C138.926 13.2335 139.185 13.51 139.518 13.7032C139.852 13.8926 140.242 13.9873 140.689 13.9873C140.988 13.9873 141.259 13.9456 141.501 13.8623C141.744 13.7752 141.954 13.6483 142.132 13.4816C142.31 13.315 142.445 13.1085 142.536 12.8623L144.456 13.0782C144.335 13.5858 144.104 14.029 143.763 14.4078C143.426 14.7828 142.994 15.0744 142.467 15.2828C141.941 15.4873 141.339 15.5896 140.661 15.5896Z" fill="#111111"/>
<path d="M153.179 8.99867L151.304 9.20321C151.251 9.01382 151.158 8.83579 151.026 8.66912C150.897 8.50246 150.723 8.36799 150.503 8.26571C150.283 8.16344 150.014 8.11231 149.696 8.11231C149.268 8.11231 148.908 8.20511 148.616 8.39071C148.329 8.57632 148.187 8.81685 148.19 9.11231C148.187 9.36609 148.279 9.57253 148.469 9.73162C148.662 9.89071 148.98 10.0214 149.423 10.1237L150.912 10.4419C151.738 10.6199 152.351 10.9021 152.753 11.2884C153.158 11.6748 153.363 12.1805 153.366 12.8055C153.363 13.3547 153.202 13.8396 152.884 14.26C152.569 14.6767 152.132 15.0025 151.571 15.2373C151.01 15.4722 150.366 15.5896 149.639 15.5896C148.571 15.5896 147.711 15.3661 147.06 14.9191C146.408 14.4684 146.02 13.8415 145.895 13.0384L147.901 12.8453C147.991 13.2392 148.185 13.5365 148.48 13.7373C148.776 13.9381 149.16 14.0384 149.634 14.0384C150.122 14.0384 150.514 13.9381 150.81 13.7373C151.109 13.5365 151.259 13.2884 151.259 12.993C151.259 12.743 151.162 12.5365 150.969 12.3737C150.779 12.2108 150.484 12.0858 150.082 11.9987L148.594 11.6862C147.757 11.5119 147.137 11.2184 146.736 10.8055C146.334 10.3888 146.135 9.86231 146.139 9.22594C146.135 8.68806 146.281 8.22215 146.577 7.82821C146.876 7.43049 147.291 7.12367 147.821 6.90776C148.355 6.68806 148.971 6.57821 149.668 6.57821C150.69 6.57821 151.495 6.79602 152.082 7.23162C152.673 7.66723 153.039 8.25624 153.179 8.99867Z" fill="#111111"/>
<path d="M161.543 15.5953C160.99 15.5953 160.491 15.4968 160.048 15.2998C159.609 15.099 159.26 14.8036 159.003 14.4134C158.749 14.0233 158.622 13.5422 158.622 12.9703C158.622 12.4778 158.713 12.0706 158.895 11.7487C159.077 11.4267 159.325 11.1691 159.639 10.9759C159.954 10.7828 160.308 10.6369 160.702 10.5384C161.099 10.4362 161.51 10.3623 161.935 10.3169C162.446 10.2638 162.861 10.2165 163.179 10.1748C163.497 10.1294 163.728 10.0612 163.872 9.97026C164.02 9.87556 164.094 9.72973 164.094 9.53276V9.49867C164.094 9.07064 163.967 8.7392 163.713 8.50435C163.459 8.2695 163.094 8.15208 162.616 8.15208C162.113 8.15208 161.713 8.26193 161.418 8.48162C161.126 8.70132 160.929 8.96079 160.827 9.26003L158.906 8.98731C159.058 8.457 159.308 8.01382 159.656 7.65776C160.005 7.29791 160.431 7.02897 160.935 6.85094C161.438 6.66912 161.995 6.57821 162.605 6.57821C163.026 6.57821 163.444 6.62746 163.861 6.72594C164.277 6.82443 164.658 6.98731 165.003 7.21458C165.348 7.43806 165.624 7.74299 165.832 8.12935C166.045 8.51571 166.151 8.99867 166.151 9.57821V15.4191H164.173V14.2203H164.105C163.98 14.4627 163.804 14.69 163.577 14.9021C163.353 15.1104 163.071 15.279 162.73 15.4078C162.393 15.5328 161.997 15.5953 161.543 15.5953ZM162.077 14.0839C162.49 14.0839 162.848 14.0025 163.151 13.8396C163.454 13.6729 163.687 13.4532 163.849 13.1805C164.016 12.9078 164.099 12.6104 164.099 12.2884V11.26C164.035 11.3131 163.925 11.3623 163.77 11.4078C163.618 11.4532 163.448 11.493 163.259 11.5271C163.069 11.5612 162.882 11.5915 162.696 11.618C162.51 11.6445 162.349 11.6672 162.213 11.6862C161.906 11.7278 161.632 11.796 161.389 11.8907C161.147 11.9854 160.955 12.118 160.815 12.2884C160.675 12.4551 160.605 12.671 160.605 12.9362C160.605 13.315 160.743 13.6009 161.02 13.7941C161.296 13.9873 161.649 14.0839 162.077 14.0839Z" fill="#111111"/>
<path d="M172.577 6.69185V8.28276H167.56V6.69185H172.577ZM168.798 4.60094H170.855V12.7941C170.855 13.0706 170.897 13.2828 170.98 13.4305C171.067 13.5744 171.181 13.6729 171.321 13.7259C171.461 13.779 171.616 13.8055 171.787 13.8055C171.916 13.8055 172.033 13.796 172.139 13.7771C172.249 13.7581 172.332 13.7411 172.389 13.7259L172.736 15.3339C172.626 15.3718 172.469 15.4134 172.264 15.4589C172.063 15.5044 171.817 15.5309 171.526 15.5384C171.01 15.5536 170.546 15.4759 170.134 15.3055C169.721 15.1312 169.393 14.8623 169.151 14.4987C168.912 14.135 168.795 13.6805 168.798 13.135V4.60094Z" fill="#111111"/>
<path d="M182.624 6.69185V8.28276H177.607V6.69185H182.624ZM178.845 4.60094H180.902V12.7941C180.902 13.0706 180.944 13.2828 181.027 13.4305C181.114 13.5744 181.228 13.6729 181.368 13.7259C181.508 13.779 181.663 13.8055 181.834 13.8055C181.963 13.8055 182.08 13.796 182.186 13.7771C182.296 13.7581 182.379 13.7411 182.436 13.7259L182.783 15.3339C182.673 15.3718 182.516 15.4134 182.311 15.4589C182.11 15.5044 181.864 15.5309 181.572 15.5384C181.057 15.5536 180.593 15.4759 180.18 15.3055C179.768 15.1312 179.44 14.8623 179.197 14.4987C178.959 14.135 178.841 13.6805 178.845 13.135V4.60094Z" fill="#111111"/>
<path d="M186.588 10.3055V15.4191H184.531V3.78276H186.543V8.17481H186.645C186.849 7.68238 187.166 7.29412 187.594 7.01003C188.026 6.72215 188.575 6.57821 189.241 6.57821C189.848 6.57821 190.376 6.70511 190.827 6.9589C191.277 7.21268 191.626 7.5839 191.872 8.07253C192.122 8.56117 192.247 9.15776 192.247 9.86231V15.4191H190.19V10.1805C190.19 9.59337 190.039 9.13693 189.736 8.81117C189.437 8.48162 189.016 8.31685 188.474 8.31685C188.111 8.31685 187.785 8.3964 187.497 8.55549C187.213 8.71079 186.99 8.93617 186.827 9.23162C186.668 9.52708 186.588 9.88503 186.588 10.3055Z" fill="#111111"/>
<path d="M198.207 15.5896C197.332 15.5896 196.577 15.4078 195.94 15.0441C195.308 14.6767 194.821 14.1578 194.48 13.4873C194.139 12.8131 193.969 12.0195 193.969 11.1066C193.969 10.2089 194.139 9.42102 194.48 8.74299C194.825 8.06117 195.306 7.53087 195.923 7.15208C196.541 6.7695 197.266 6.57821 198.099 6.57821C198.637 6.57821 199.145 6.66534 199.622 6.83958C200.103 7.01003 200.527 7.27518 200.895 7.63503C201.266 7.99488 201.558 8.45321 201.77 9.01003C201.982 9.56306 202.088 10.2222 202.088 10.9873V11.618H194.935V10.2316H200.116C200.113 9.83768 200.027 9.48731 199.861 9.18049C199.694 8.86988 199.461 8.62556 199.162 8.44753C198.866 8.2695 198.522 8.18049 198.128 8.18049C197.707 8.18049 197.338 8.28276 197.02 8.48731C196.702 8.68806 196.454 8.95321 196.276 9.28276C196.101 9.60852 196.012 9.96647 196.009 10.3566V11.5669C196.009 12.0744 196.101 12.51 196.287 12.8737C196.473 13.2335 196.732 13.51 197.065 13.7032C197.399 13.8926 197.789 13.9873 198.236 13.9873C198.535 13.9873 198.806 13.9456 199.048 13.8623C199.291 13.7752 199.501 13.6483 199.679 13.4816C199.857 13.315 199.991 13.1085 200.082 12.8623L202.003 13.0782C201.882 13.5858 201.651 14.029 201.31 14.4078C200.973 14.7828 200.541 15.0744 200.014 15.2828C199.488 15.4873 198.885 15.5896 198.207 15.5896Z" fill="#111111"/>
<path d="M207.797 15.4191V6.69185H209.791V8.1464H209.882C210.041 7.64261 210.314 7.25435 210.7 6.98162C211.09 6.70511 211.536 6.56685 212.036 6.56685C212.149 6.56685 212.276 6.57253 212.416 6.5839C212.56 6.59147 212.679 6.60473 212.774 6.62367V8.51571C212.687 8.48541 212.549 8.4589 212.359 8.43617C212.174 8.40965 211.994 8.3964 211.82 8.3964C211.445 8.3964 211.107 8.47784 210.808 8.64071C210.513 8.79981 210.28 9.0214 210.109 9.30549C209.939 9.58958 209.854 9.91723 209.854 10.2884V15.4191H207.797Z" fill="#111111"/>
<path d="M216.496 15.5953C215.943 15.5953 215.445 15.4968 215.001 15.2998C214.562 15.099 214.214 14.8036 213.956 14.4134C213.702 14.0233 213.575 13.5422 213.575 12.9703C213.575 12.4778 213.666 12.0706 213.848 11.7487C214.03 11.4267 214.278 11.1691 214.592 10.9759C214.907 10.7828 215.261 10.6369 215.655 10.5384C216.053 10.4362 216.464 10.3623 216.888 10.3169C217.399 10.2638 217.814 10.2165 218.132 10.1748C218.45 10.1294 218.681 10.0612 218.825 9.97026C218.973 9.87556 219.047 9.72973 219.047 9.53276V9.49867C219.047 9.07064 218.92 8.7392 218.666 8.50435C218.412 8.2695 218.047 8.15208 217.57 8.15208C217.066 8.15208 216.666 8.26193 216.371 8.48162C216.079 8.70132 215.882 8.96079 215.78 9.26003L213.859 8.98731C214.011 8.457 214.261 8.01382 214.609 7.65776C214.958 7.29791 215.384 7.02897 215.888 6.85094C216.392 6.66912 216.948 6.57821 217.558 6.57821C217.979 6.57821 218.397 6.62746 218.814 6.72594C219.231 6.82443 219.611 6.98731 219.956 7.21458C220.301 7.43806 220.577 7.74299 220.786 8.12935C220.998 8.51571 221.104 8.99867 221.104 9.57821V15.4191H219.126V14.2203H219.058C218.933 14.4627 218.757 14.69 218.53 14.9021C218.306 15.1104 218.024 15.279 217.683 15.4078C217.346 15.5328 216.95 15.5953 216.496 15.5953ZM217.03 14.0839C217.443 14.0839 217.801 14.0025 218.104 13.8396C218.407 13.6729 218.64 13.4532 218.803 13.1805C218.969 12.9078 219.053 12.6104 219.053 12.2884V11.26C218.988 11.3131 218.878 11.3623 218.723 11.4078C218.571 11.4532 218.401 11.493 218.212 11.5271C218.022 11.5612 217.835 11.5915 217.649 11.618C217.464 11.6445 217.303 11.6672 217.166 11.6862C216.859 11.7278 216.585 11.796 216.342 11.8907C216.1 11.9854 215.909 12.118 215.768 12.2884C215.628 12.4551 215.558 12.671 215.558 12.9362C215.558 13.315 215.696 13.6009 215.973 13.7941C216.25 13.9873 216.602 14.0839 217.03 14.0839Z" fill="#111111"/>
<path d="M227.53 6.69185V8.28276H222.513V6.69185H227.53ZM223.751 4.60094H225.808V12.7941C225.808 13.0706 225.85 13.2828 225.933 13.4305C226.02 13.5744 226.134 13.6729 226.274 13.7259C226.414 13.779 226.57 13.8055 226.74 13.8055C226.869 13.8055 226.986 13.796 227.092 13.7771C227.202 13.7581 227.286 13.7411 227.342 13.7259L227.689 15.3339C227.579 15.3718 227.422 15.4134 227.217 15.4589C227.017 15.5044 226.77 15.5309 226.479 15.5384C225.964 15.5536 225.5 15.4759 225.087 15.3055C224.674 15.1312 224.346 14.8623 224.104 14.4987C223.865 14.135 223.748 13.6805 223.751 13.135V4.60094Z" fill="#111111"/>
<path d="M233.02 15.5896C232.145 15.5896 231.389 15.4078 230.753 15.0441C230.12 14.6767 229.634 14.1578 229.293 13.4873C228.952 12.8131 228.781 12.0195 228.781 11.1066C228.781 10.2089 228.952 9.42102 229.293 8.74299C229.637 8.06117 230.118 7.53087 230.736 7.15208C231.353 6.7695 232.079 6.57821 232.912 6.57821C233.45 6.57821 233.957 6.66534 234.435 6.83958C234.916 7.01003 235.34 7.27518 235.707 7.63503C236.079 7.99488 236.37 8.45321 236.582 9.01003C236.795 9.56306 236.901 10.2222 236.901 10.9873V11.618H229.747V10.2316H234.929C234.925 9.83768 234.84 9.48731 234.673 9.18049C234.507 8.86988 234.274 8.62556 233.974 8.44753C233.679 8.2695 233.334 8.18049 232.94 8.18049C232.52 8.18049 232.151 8.28276 231.832 8.48731C231.514 8.68806 231.266 8.95321 231.088 9.28276C230.914 9.60852 230.825 9.96647 230.821 10.3566V11.5669C230.821 12.0744 230.914 12.51 231.099 12.8737C231.285 13.2335 231.545 13.51 231.878 13.7032C232.211 13.8926 232.601 13.9873 233.048 13.9873C233.348 13.9873 233.618 13.9456 233.861 13.8623C234.103 13.7752 234.313 13.6483 234.491 13.4816C234.67 13.315 234.804 13.1085 234.895 12.8623L236.815 13.0782C236.694 13.5858 236.463 14.029 236.122 14.4078C235.785 14.7828 235.353 15.0744 234.827 15.2828C234.3 15.4873 233.698 15.5896 233.02 15.5896Z" fill="#111111"/>
<path d="M246.416 15.5896C245.564 15.5896 244.825 15.4021 244.2 15.0271C243.575 14.6521 243.09 14.1275 242.746 13.4532C242.405 12.779 242.234 11.9911 242.234 11.0896C242.234 10.1881 242.405 9.39829 242.746 8.72026C243.09 8.04223 243.575 7.51571 244.2 7.14071C244.825 6.76571 245.564 6.57821 246.416 6.57821C247.268 6.57821 248.007 6.76571 248.632 7.14071C249.257 7.51571 249.74 8.04223 250.081 8.72026C250.426 9.39829 250.598 10.1881 250.598 11.0896C250.598 11.9911 250.426 12.779 250.081 13.4532C249.74 14.1275 249.257 14.6521 248.632 15.0271C248.007 15.4021 247.268 15.5896 246.416 15.5896ZM246.428 13.9419C246.89 13.9419 247.276 13.815 247.587 13.5612C247.897 13.3036 248.128 12.9589 248.28 12.5271C248.435 12.0953 248.513 11.6142 248.513 11.0839C248.513 10.5498 248.435 10.0669 248.28 9.63503C248.128 9.19943 247.897 8.85284 247.587 8.59526C247.276 8.33768 246.89 8.2089 246.428 8.2089C245.954 8.2089 245.56 8.33768 245.246 8.59526C244.935 8.85284 244.702 9.19943 244.547 9.63503C244.395 10.0669 244.32 10.5498 244.32 11.0839C244.32 11.6142 244.395 12.0953 244.547 12.5271C244.702 12.9589 244.935 13.3036 245.246 13.5612C245.56 13.815 245.954 13.9419 246.428 13.9419Z" fill="#111111"/>
<path d="M256.764 6.69185V8.28276H251.605V6.69185H256.764ZM252.895 15.4191V5.86799C252.895 5.28087 253.016 4.79223 253.259 4.40208C253.505 4.01193 253.834 3.72026 254.247 3.52708C254.66 3.3339 255.118 3.2373 255.622 3.2373C255.978 3.2373 256.295 3.26571 256.571 3.32253C256.848 3.37935 257.052 3.43049 257.185 3.47594L256.776 5.06685C256.688 5.04034 256.579 5.01382 256.446 4.9873C256.313 4.957 256.166 4.94185 256.003 4.94185C255.62 4.94185 255.349 5.03465 255.19 5.22026C255.035 5.40208 254.957 5.66344 254.957 6.00435V15.4191H252.895Z" fill="#111111"/>
<path d="M266.151 15.5896C265.279 15.5896 264.531 15.3983 263.906 15.0157C263.285 14.6331 262.806 14.1047 262.469 13.4305C262.135 12.7525 261.969 11.9722 261.969 11.0896C261.969 10.2032 262.139 9.42102 262.48 8.74299C262.821 8.06117 263.302 7.53087 263.923 7.15208C264.548 6.7695 265.287 6.57821 266.139 6.57821C266.848 6.57821 267.474 6.7089 268.02 6.97026C268.569 7.22784 269.007 7.59337 269.332 8.06685C269.658 8.53655 269.844 9.08579 269.889 9.71458H267.923C267.844 9.29412 267.654 8.94374 267.355 8.66344C267.06 8.37935 266.664 8.23731 266.168 8.23731C265.747 8.23731 265.378 8.35094 265.06 8.57821C264.741 8.8017 264.493 9.12367 264.315 9.54412C264.141 9.96458 264.054 10.4684 264.054 11.0555C264.054 11.6502 264.141 12.1615 264.315 12.5896C264.49 13.0138 264.734 13.3415 265.048 13.5725C265.366 13.7998 265.74 13.9134 266.168 13.9134C266.471 13.9134 266.741 13.8566 266.98 13.743C267.223 13.6256 267.425 13.457 267.588 13.2373C267.751 13.0176 267.863 12.7506 267.923 12.4362H269.889C269.84 13.0536 269.658 13.6009 269.344 14.0782C269.029 14.5517 268.601 14.9229 268.06 15.1919C267.518 15.457 266.882 15.5896 266.151 15.5896Z" fill="#111111"/>
<path d="M273.635 10.3055V15.4191H271.578V3.78276H273.589V8.17481H273.692C273.896 7.68238 274.213 7.29412 274.641 7.01003C275.072 6.72215 275.622 6.57821 276.288 6.57821C276.894 6.57821 277.423 6.70511 277.874 6.9589C278.324 7.21268 278.673 7.5839 278.919 8.07253C279.169 8.56117 279.294 9.15776 279.294 9.86231V15.4191H277.237V10.1805C277.237 9.59337 277.086 9.13693 276.783 8.81117C276.483 8.48162 276.063 8.31685 275.521 8.31685C275.158 8.31685 274.832 8.3964 274.544 8.55549C274.26 8.71079 274.036 8.93617 273.874 9.23162C273.714 9.52708 273.635 9.88503 273.635 10.3055Z" fill="#111111"/>
<path d="M283.902 15.5953C283.349 15.5953 282.851 15.4968 282.408 15.2998C281.968 15.099 281.62 14.8036 281.362 14.4134C281.108 14.0233 280.982 13.5422 280.982 12.9703C280.982 12.4778 281.072 12.0706 281.254 11.7487C281.436 11.4267 281.684 11.1691 281.999 10.9759C282.313 10.7828 282.667 10.6369 283.061 10.5384C283.459 10.4362 283.87 10.3623 284.294 10.3169C284.805 10.2638 285.22 10.2165 285.538 10.1748C285.857 10.1294 286.088 10.0612 286.232 9.97026C286.379 9.87556 286.453 9.72973 286.453 9.53276V9.49867C286.453 9.07064 286.326 8.7392 286.072 8.50435C285.819 8.2695 285.453 8.15208 284.976 8.15208C284.472 8.15208 284.072 8.26193 283.777 8.48162C283.485 8.70132 283.288 8.96079 283.186 9.26003L281.266 8.98731C281.417 8.457 281.667 8.01382 282.016 7.65776C282.364 7.29791 282.79 7.02897 283.294 6.85094C283.798 6.66912 284.355 6.57821 284.964 6.57821C285.385 6.57821 285.804 6.62746 286.22 6.72594C286.637 6.82443 287.018 6.98731 287.362 7.21458C287.707 7.43806 287.983 7.74299 288.192 8.12935C288.404 8.51571 288.51 8.99867 288.51 9.57821V15.4191H286.533V14.2203H286.464C286.339 14.4627 286.163 14.69 285.936 14.9021C285.713 15.1104 285.43 15.279 285.089 15.4078C284.752 15.5328 284.357 15.5953 283.902 15.5953ZM284.436 14.0839C284.849 14.0839 285.207 14.0025 285.51 13.8396C285.813 13.6729 286.046 13.4532 286.209 13.1805C286.375 12.9078 286.459 12.6104 286.459 12.2884V11.26C286.394 11.3131 286.285 11.3623 286.129 11.4078C285.978 11.4532 285.807 11.493 285.618 11.5271C285.429 11.5612 285.241 11.5915 285.055 11.618C284.87 11.6445 284.709 11.6672 284.572 11.6862C284.266 11.7278 283.991 11.796 283.749 11.8907C283.506 11.9854 283.315 12.118 283.175 12.2884C283.035 12.4551 282.964 12.671 282.964 12.9362C282.964 13.315 283.103 13.6009 283.379 13.7941C283.656 13.9873 284.008 14.0839 284.436 14.0839Z" fill="#111111"/>
<path d="M294.385 15.5896C293.533 15.5896 292.794 15.4021 292.169 15.0271C291.544 14.6521 291.059 14.1275 290.714 13.4532C290.374 12.779 290.203 11.9911 290.203 11.0896C290.203 10.1881 290.374 9.39829 290.714 8.72026C291.059 8.04223 291.544 7.51571 292.169 7.14071C292.794 6.76571 293.533 6.57821 294.385 6.57821C295.237 6.57821 295.976 6.76571 296.601 7.14071C297.226 7.51571 297.709 8.04223 298.05 8.72026C298.394 9.39829 298.567 10.1881 298.567 11.0896C298.567 11.9911 298.394 12.779 298.05 13.4532C297.709 14.1275 297.226 14.6521 296.601 15.0271C295.976 15.4021 295.237 15.5896 294.385 15.5896ZM294.396 13.9419C294.858 13.9419 295.245 13.815 295.555 13.5612C295.866 13.3036 296.097 12.9589 296.249 12.5271C296.404 12.0953 296.482 11.6142 296.482 11.0839C296.482 10.5498 296.404 10.0669 296.249 9.63503C296.097 9.19943 295.866 8.85284 295.555 8.59526C295.245 8.33768 294.858 8.2089 294.396 8.2089C293.923 8.2089 293.529 8.33768 293.214 8.59526C292.904 8.85284 292.671 9.19943 292.516 9.63503C292.364 10.0669 292.288 10.5498 292.288 11.0839C292.288 11.6142 292.364 12.0953 292.516 12.5271C292.671 12.9589 292.904 13.3036 293.214 13.5612C293.529 13.815 293.923 13.9419 294.396 13.9419Z" fill="#111111"/>
<path d="M307.21 8.99867L305.335 9.20321C305.282 9.01382 305.189 8.83579 305.057 8.66912C304.928 8.50246 304.754 8.36799 304.534 8.26571C304.314 8.16344 304.045 8.11231 303.727 8.11231C303.299 8.11231 302.939 8.20511 302.648 8.39071C302.36 8.57632 302.218 8.81685 302.222 9.11231C302.218 9.36609 302.311 9.57253 302.5 9.73162C302.693 9.89071 303.011 10.0214 303.455 10.1237L304.943 10.4419C305.769 10.6199 306.383 10.9021 306.784 11.2884C307.189 11.6748 307.394 12.1805 307.398 12.8055C307.394 13.3547 307.233 13.8396 306.915 14.26C306.6 14.6767 306.163 15.0025 305.602 15.2373C305.042 15.4722 304.398 15.5896 303.67 15.5896C302.602 15.5896 301.742 15.3661 301.091 14.9191C300.439 14.4684 300.051 13.8415 299.926 13.0384L301.932 12.8453C302.023 13.2392 302.216 13.5365 302.511 13.7373C302.807 13.9381 303.191 14.0384 303.665 14.0384C304.153 14.0384 304.545 13.9381 304.841 13.7373C305.14 13.5365 305.29 13.2884 305.29 12.993C305.29 12.743 305.193 12.5365 305 12.3737C304.811 12.2108 304.515 12.0858 304.114 11.9987L302.625 11.6862C301.788 11.5119 301.169 11.2184 300.767 10.8055C300.366 10.3888 300.167 9.86231 300.17 9.22594C300.167 8.68806 300.313 8.22215 300.608 7.82821C300.907 7.43049 301.322 7.12367 301.852 6.90776C302.386 6.68806 303.002 6.57821 303.699 6.57821C304.722 6.57821 305.527 6.79602 306.114 7.23162C306.705 7.66723 307.07 8.25624 307.21 8.99867Z" fill="#111111"/>
<path d="M315.119 10.3055V15.4191H313.062V3.78276H315.074V8.17481H315.176C315.381 7.68238 315.697 7.29412 316.125 7.01003C316.557 6.72215 317.106 6.57821 317.773 6.57821C318.379 6.57821 318.907 6.70511 319.358 6.9589C319.809 7.21268 320.157 7.5839 320.403 8.07253C320.653 8.56117 320.778 9.15776 320.778 9.86231V15.4191H318.722V10.1805C318.722 9.59337 318.57 9.13693 318.267 8.81117C317.968 8.48162 317.547 8.31685 317.006 8.31685C316.642 8.31685 316.316 8.3964 316.028 8.55549C315.744 8.71079 315.521 8.93617 315.358 9.23162C315.199 9.52708 315.119 9.88503 315.119 10.3055Z" fill="#111111"/>
<path d="M326.739 15.5896C325.864 15.5896 325.108 15.4078 324.472 15.0441C323.839 14.6767 323.352 14.1578 323.011 13.4873C322.67 12.8131 322.5 12.0195 322.5 11.1066C322.5 10.2089 322.67 9.42102 323.011 8.74299C323.356 8.06117 323.837 7.53087 324.455 7.15208C325.072 6.7695 325.797 6.57821 326.631 6.57821C327.169 6.57821 327.676 6.66534 328.153 6.83958C328.634 7.01003 329.059 7.27518 329.426 7.63503C329.797 7.99488 330.089 8.45321 330.301 9.01003C330.513 9.56306 330.619 10.2222 330.619 10.9873V11.618H323.466V10.2316H328.648C328.644 9.83768 328.559 9.48731 328.392 9.18049C328.225 8.86988 327.992 8.62556 327.693 8.44753C327.398 8.2695 327.053 8.18049 326.659 8.18049C326.239 8.18049 325.869 8.28276 325.551 8.48731C325.233 8.68806 324.985 8.95321 324.807 9.28276C324.633 9.60852 324.544 9.96647 324.54 10.3566V11.5669C324.54 12.0744 324.633 12.51 324.818 12.8737C325.004 13.2335 325.263 13.51 325.597 13.7032C325.93 13.8926 326.32 13.9873 326.767 13.9873C327.066 13.9873 327.337 13.9456 327.58 13.8623C327.822 13.7752 328.032 13.6483 328.21 13.4816C328.388 13.315 328.523 13.1085 328.614 12.8623L330.534 13.0782C330.413 13.5858 330.182 14.029 329.841 14.4078C329.504 14.7828 329.072 15.0744 328.545 15.2828C328.019 15.4873 327.417 15.5896 326.739 15.5896Z" fill="#111111"/>
<path d="M332.359 15.4191V6.69185H334.354V8.1464H334.445C334.604 7.64261 334.876 7.25435 335.263 6.98162C335.653 6.70511 336.098 6.56685 336.598 6.56685C336.712 6.56685 336.839 6.57253 336.979 6.5839C337.123 6.59147 337.242 6.60473 337.337 6.62367V8.51571C337.25 8.48541 337.111 8.4589 336.922 8.43617C336.736 8.40965 336.556 8.3964 336.382 8.3964C336.007 8.3964 335.67 8.47784 335.371 8.64071C335.075 8.79981 334.842 9.0214 334.672 9.30549C334.501 9.58958 334.416 9.91723 334.416 10.2884V15.4191H332.359Z" fill="#111111"/>
<path d="M104.078 34.4191V25.6919H106.044V27.1748H106.146C106.328 26.6748 106.629 26.2847 107.05 26.0044C107.47 25.7203 107.972 25.5782 108.555 25.5782C109.146 25.5782 109.644 25.7222 110.05 26.01C110.459 26.2941 110.747 26.6824 110.913 27.1748H111.004C111.197 26.69 111.523 26.3036 111.982 26.0157C112.444 25.724 112.991 25.5782 113.624 25.5782C114.427 25.5782 115.082 25.832 115.589 26.3396C116.097 26.8472 116.351 27.5877 116.351 28.5612V34.4191H114.288V28.8794C114.288 28.3377 114.144 27.9419 113.857 27.6919C113.569 27.4381 113.216 27.3112 112.8 27.3112C112.304 27.3112 111.915 27.4665 111.635 27.7771C111.358 28.0839 111.22 28.4835 111.22 28.9759V34.4191H109.203V28.7941C109.203 28.3434 109.067 27.9835 108.794 27.7146C108.525 27.4456 108.173 27.3112 107.737 27.3112C107.442 27.3112 107.173 27.3869 106.93 27.5384C106.688 27.6862 106.495 27.8964 106.351 28.1691C106.207 28.4381 106.135 28.7525 106.135 29.1123V34.4191H104.078Z" fill="#111111"/>
<path d="M118.438 34.4191V25.6919H120.494V34.4191H118.438ZM119.472 24.4532C119.146 24.4532 118.866 24.3453 118.631 24.1294C118.396 23.9097 118.278 23.6464 118.278 23.3396C118.278 23.029 118.396 22.7657 118.631 22.5498C118.866 22.3301 119.146 22.2203 119.472 22.2203C119.801 22.2203 120.081 22.3301 120.312 22.5498C120.547 22.7657 120.665 23.029 120.665 23.3396C120.665 23.6464 120.547 23.9097 120.312 24.1294C120.081 24.3453 119.801 24.4532 119.472 24.4532Z" fill="#111111"/>
<path d="M124.666 29.3055V34.4191H122.609V25.6919H124.575V27.1748H124.678C124.878 26.6862 125.198 26.2979 125.638 26.01C126.081 25.7222 126.628 25.5782 127.28 25.5782C127.882 25.5782 128.407 25.707 128.854 25.9646C129.304 26.2222 129.653 26.5953 129.899 27.0839C130.149 27.5725 130.272 28.1653 130.268 28.8623V34.4191H128.212V29.1805C128.212 28.5972 128.06 28.1407 127.757 27.8112C127.458 27.4816 127.043 27.3169 126.513 27.3169C126.153 27.3169 125.833 27.3964 125.553 27.5555C125.276 27.7108 125.058 27.9362 124.899 28.2316C124.744 28.5271 124.666 28.885 124.666 29.3055Z" fill="#111111"/>
<path d="M135.598 34.5725C134.912 34.5725 134.299 34.3964 133.757 34.0441C133.215 33.6919 132.787 33.1805 132.473 32.51C132.159 31.8396 132.001 31.0252 132.001 30.0669C132.001 29.0972 132.161 28.279 132.479 27.6123C132.801 26.9419 133.234 26.4362 133.78 26.0953C134.325 25.7506 134.933 25.5782 135.604 25.5782C136.115 25.5782 136.536 25.6653 136.865 25.8396C137.195 26.01 137.456 26.2165 137.649 26.4589C137.842 26.6975 137.992 26.9229 138.098 27.135H138.183V22.7828H140.246V34.4191H138.223V33.0441H138.098C137.992 33.2562 137.839 33.4816 137.638 33.7203C137.437 33.9551 137.172 34.1559 136.842 34.3225C136.513 34.4892 136.098 34.5725 135.598 34.5725ZM136.172 32.885C136.607 32.885 136.979 32.7676 137.286 32.5328C137.592 32.2941 137.825 31.9627 137.984 31.5384C138.143 31.1142 138.223 30.6199 138.223 30.0555C138.223 29.4911 138.143 29.0006 137.984 28.5839C137.829 28.1672 137.598 27.8434 137.291 27.6123C136.988 27.3812 136.615 27.2657 136.172 27.2657C135.714 27.2657 135.331 27.385 135.024 27.6237C134.717 27.8623 134.486 28.1919 134.331 28.6123C134.176 29.0328 134.098 29.5138 134.098 30.0555C134.098 30.6009 134.176 31.0877 134.331 31.5157C134.49 31.94 134.723 32.2752 135.03 32.5214C135.34 32.7638 135.721 32.885 136.172 32.885Z" fill="#111111"/>
<path d="M146.406 34.4191V25.6919H148.463V34.4191H146.406ZM147.44 24.4532C147.115 24.4532 146.834 24.3453 146.599 24.1294C146.365 23.9097 146.247 23.6464 146.247 23.3396C146.247 23.029 146.365 22.7657 146.599 22.5498C146.834 22.3301 147.115 22.2203 147.44 22.2203C147.77 22.2203 148.05 22.3301 148.281 22.5498C148.516 22.7657 148.634 23.029 148.634 23.3396C148.634 23.6464 148.516 23.9097 148.281 24.1294C148.05 24.3453 147.77 24.4532 147.44 24.4532Z" fill="#111111"/>
<path d="M157.476 27.9987L155.601 28.2032C155.548 28.0138 155.455 27.8358 155.322 27.6691C155.194 27.5025 155.019 27.368 154.8 27.2657C154.58 27.1634 154.311 27.1123 153.993 27.1123C153.565 27.1123 153.205 27.2051 152.913 27.3907C152.625 27.5763 152.483 27.8169 152.487 28.1123C152.483 28.3661 152.576 28.5725 152.766 28.7316C152.959 28.8907 153.277 29.0214 153.72 29.1237L155.209 29.4419C156.035 29.6199 156.648 29.9021 157.05 30.2884C157.455 30.6748 157.66 31.1805 157.663 31.8055C157.66 32.3547 157.499 32.8396 157.18 33.26C156.866 33.6767 156.429 34.0025 155.868 34.2373C155.307 34.4722 154.663 34.5896 153.936 34.5896C152.868 34.5896 152.008 34.3661 151.357 33.9191C150.705 33.4684 150.317 32.8415 150.192 32.0384L152.197 31.8453C152.288 32.2392 152.482 32.5365 152.777 32.7373C153.072 32.9381 153.457 33.0384 153.93 33.0384C154.419 33.0384 154.811 32.9381 155.107 32.7373C155.406 32.5365 155.555 32.2884 155.555 31.993C155.555 31.743 155.459 31.5365 155.266 31.3737C155.076 31.2108 154.781 31.0858 154.379 30.9987L152.891 30.6862C152.054 30.5119 151.434 30.2184 151.033 29.8055C150.631 29.3888 150.432 28.8623 150.436 28.2259C150.432 27.6881 150.578 27.2222 150.874 26.8282C151.173 26.4305 151.588 26.1237 152.118 25.9078C152.652 25.6881 153.268 25.5782 153.964 25.5782C154.987 25.5782 155.792 25.796 156.379 26.2316C156.97 26.6672 157.336 27.2562 157.476 27.9987Z" fill="#111111"/>
<path d="M163.328 34.4191V25.6919H165.385V34.4191H163.328ZM164.362 24.4532C164.036 24.4532 163.756 24.3453 163.521 24.1294C163.286 23.9097 163.169 23.6464 163.169 23.3396C163.169 23.029 163.286 22.7657 163.521 22.5498C163.756 22.3301 164.036 22.2203 164.362 22.2203C164.692 22.2203 164.972 22.3301 165.203 22.5498C165.438 22.7657 165.555 23.029 165.555 23.3396C165.555 23.6464 165.438 23.9097 165.203 24.1294C164.972 24.3453 164.692 24.4532 164.362 24.4532Z" fill="#111111"/>
<path d="M169.557 29.3055V34.4191H167.5V25.6919H169.466V27.1748H169.568C169.769 26.6862 170.089 26.2979 170.528 26.01C170.972 25.7222 171.519 25.5782 172.17 25.5782C172.773 25.5782 173.297 25.707 173.744 25.9646C174.195 26.2222 174.544 26.5953 174.79 27.0839C175.04 27.5725 175.163 28.1653 175.159 28.8623V34.4191H173.102V29.1805C173.102 28.5972 172.951 28.1407 172.648 27.8112C172.348 27.4816 171.934 27.3169 171.403 27.3169C171.044 27.3169 170.723 27.3964 170.443 27.5555C170.167 27.7108 169.949 27.9362 169.79 28.2316C169.634 28.5271 169.557 28.885 169.557 29.3055Z" fill="#111111"/>
<path d="M183.02 34.4191L180.554 25.6919H182.651L184.185 31.8282H184.264L185.832 25.6919H187.906L189.474 31.7941H189.56L191.071 25.6919H193.173L190.702 34.4191H188.56L186.923 28.5214H186.804L185.168 34.4191H183.02Z" fill="#111111"/>
<path d="M194.609 34.4191V25.6919H196.604V27.1464H196.695C196.854 26.6426 197.126 26.2544 197.513 25.9816C197.903 25.7051 198.348 25.5669 198.848 25.5669C198.962 25.5669 199.089 25.5725 199.229 25.5839C199.373 25.5915 199.492 25.6047 199.587 25.6237V27.5157C199.5 27.4854 199.361 27.4589 199.172 27.4362C198.986 27.4097 198.806 27.3964 198.632 27.3964C198.257 27.3964 197.92 27.4778 197.621 27.6407C197.325 27.7998 197.092 28.0214 196.922 28.3055C196.751 28.5896 196.666 28.9172 196.666 29.2884V34.4191H194.609Z" fill="#111111"/>
<path d="M205.78 25.6919V27.2828H200.763V25.6919H205.78ZM202.001 23.6009H204.058V31.7941C204.058 32.0706 204.1 32.2828 204.183 32.4305C204.27 32.5744 204.384 32.6729 204.524 32.7259C204.664 32.779 204.82 32.8055 204.99 32.8055C205.119 32.8055 205.236 32.796 205.342 32.7771C205.452 32.7581 205.536 32.7411 205.592 32.7259L205.939 34.3339C205.829 34.3718 205.672 34.4134 205.467 34.4589C205.267 34.5044 205.02 34.5309 204.729 34.5384C204.214 34.5536 203.75 34.4759 203.337 34.3055C202.924 34.1312 202.596 33.8623 202.354 33.4987C202.115 33.135 201.998 32.6805 202.001 32.135V23.6009Z" fill="#111111"/>
<path d="M215.827 25.6919V27.2828H210.81V25.6919H215.827ZM212.048 23.6009H214.105V31.7941C214.105 32.0706 214.147 32.2828 214.23 32.4305C214.317 32.5744 214.431 32.6729 214.571 32.7259C214.711 32.779 214.866 32.8055 215.037 32.8055C215.166 32.8055 215.283 32.796 215.389 32.7771C215.499 32.7581 215.582 32.7411 215.639 32.7259L215.986 34.3339C215.876 34.3718 215.719 34.4134 215.514 34.4589C215.313 34.5044 215.067 34.5309 214.776 34.5384C214.26 34.5536 213.796 34.4759 213.384 34.3055C212.971 34.1312 212.643 33.8623 212.401 33.4987C212.162 33.135 212.045 32.6805 212.048 32.135V23.6009Z" fill="#111111"/>
<path d="M221.26 34.5896C220.408 34.5896 219.669 34.4021 219.044 34.0271C218.419 33.6521 217.934 33.1275 217.589 32.4532C217.249 31.779 217.078 30.9911 217.078 30.0896C217.078 29.1881 217.249 28.3983 217.589 27.7203C217.934 27.0422 218.419 26.5157 219.044 26.1407C219.669 25.7657 220.408 25.5782 221.26 25.5782C222.112 25.5782 222.851 25.7657 223.476 26.1407C224.101 26.5157 224.584 27.0422 224.925 27.7203C225.269 28.3983 225.442 29.1881 225.442 30.0896C225.442 30.9911 225.269 31.779 224.925 32.4532C224.584 33.1275 224.101 33.6521 223.476 34.0271C222.851 34.4021 222.112 34.5896 221.26 34.5896ZM221.271 32.9419C221.733 32.9419 222.12 32.815 222.43 32.5612C222.741 32.3036 222.972 31.9589 223.124 31.5271C223.279 31.0953 223.357 30.6142 223.357 30.0839C223.357 29.5498 223.279 29.0669 223.124 28.635C222.972 28.1994 222.741 27.8528 222.43 27.5953C222.12 27.3377 221.733 27.2089 221.271 27.2089C220.798 27.2089 220.404 27.3377 220.089 27.5953C219.779 27.8528 219.546 28.1994 219.391 28.635C219.239 29.0669 219.163 29.5498 219.163 30.0839C219.163 30.6142 219.239 31.0953 219.391 31.5271C219.546 31.9589 219.779 32.3036 220.089 32.5612C220.404 32.815 220.798 32.9419 221.271 32.9419Z" fill="#111111"/>
<path d="M235.514 25.6919V27.2828H230.497V25.6919H235.514ZM231.736 23.6009H233.793V31.7941C233.793 32.0706 233.834 32.2828 233.918 32.4305C234.005 32.5744 234.118 32.6729 234.259 32.7259C234.399 32.779 234.554 32.8055 234.724 32.8055C234.853 32.8055 234.971 32.796 235.077 32.7771C235.187 32.7581 235.27 32.7411 235.327 32.7259L235.673 34.3339C235.563 34.3718 235.406 34.4134 235.202 34.4589C235.001 34.5044 234.755 34.5309 234.463 34.5384C233.948 34.5536 233.484 34.4759 233.071 34.3055C232.658 34.1312 232.33 33.8623 232.088 33.4987C231.849 33.135 231.732 32.6805 231.736 32.135V23.6009Z" fill="#111111"/>
<path d="M237.234 34.4191V25.6919H239.291V34.4191H237.234ZM238.268 24.4532C237.943 24.4532 237.662 24.3453 237.428 24.1294C237.193 23.9097 237.075 23.6464 237.075 23.3396C237.075 23.029 237.193 22.7657 237.428 22.5498C237.662 22.3301 237.943 22.2203 238.268 22.2203C238.598 22.2203 238.878 22.3301 239.109 22.5498C239.344 22.7657 239.462 23.029 239.462 23.3396C239.462 23.6464 239.344 23.9097 239.109 24.1294C238.878 24.3453 238.598 24.4532 238.268 24.4532Z" fill="#111111"/>
<path d="M241.406 34.4191V25.6919H243.372V27.1748H243.474C243.656 26.6748 243.957 26.2847 244.378 26.0044C244.798 25.7203 245.3 25.5782 245.884 25.5782C246.474 25.5782 246.973 25.7222 247.378 26.01C247.787 26.2941 248.075 26.6824 248.241 27.1748H248.332C248.526 26.69 248.851 26.3036 249.31 26.0157C249.772 25.724 250.319 25.5782 250.952 25.5782C251.755 25.5782 252.41 25.832 252.918 26.3396C253.425 26.8472 253.679 27.5877 253.679 28.5612V34.4191H251.616V28.8794C251.616 28.3377 251.473 27.9419 251.185 27.6919C250.897 27.4381 250.545 27.3112 250.128 27.3112C249.632 27.3112 249.243 27.4665 248.963 27.7771C248.687 28.0839 248.548 28.4835 248.548 28.9759V34.4191H246.531V28.7941C246.531 28.3434 246.395 27.9835 246.122 27.7146C245.853 27.4456 245.501 27.3112 245.065 27.3112C244.77 27.3112 244.501 27.3869 244.259 27.5384C244.016 27.6862 243.823 27.8964 243.679 28.1691C243.535 28.4381 243.463 28.7525 243.463 29.1123V34.4191H241.406Z" fill="#111111"/>
<path d="M259.629 34.5896C258.754 34.5896 257.999 34.4078 257.362 34.0441C256.73 33.6767 256.243 33.1578 255.902 32.4873C255.561 31.8131 255.391 31.0195 255.391 30.1066C255.391 29.2089 255.561 28.421 255.902 27.743C256.247 27.0612 256.728 26.5309 257.345 26.1521C257.963 25.7695 258.688 25.5782 259.521 25.5782C260.059 25.5782 260.567 25.6653 261.044 25.8396C261.525 26.01 261.949 26.2752 262.317 26.635C262.688 26.9949 262.98 27.4532 263.192 28.01C263.404 28.5631 263.51 29.2222 263.51 29.9873V30.618H256.357V29.2316H261.538C261.535 28.8377 261.449 28.4873 261.283 28.1805C261.116 27.8699 260.883 27.6256 260.584 27.4475C260.288 27.2695 259.944 27.1805 259.55 27.1805C259.129 27.1805 258.76 27.2828 258.442 27.4873C258.124 27.6881 257.875 27.9532 257.697 28.2828C257.523 28.6085 257.434 28.9665 257.43 29.3566V30.5669C257.43 31.0744 257.523 31.51 257.709 31.8737C257.894 32.2335 258.154 32.51 258.487 32.7032C258.821 32.8926 259.211 32.9873 259.658 32.9873C259.957 32.9873 260.228 32.9456 260.47 32.8623C260.713 32.7752 260.923 32.6483 261.101 32.4816C261.279 32.315 261.413 32.1085 261.504 31.8623L263.425 32.0782C263.304 32.5858 263.072 33.029 262.732 33.4078C262.394 33.7828 261.963 34.0744 261.436 34.2828C260.91 34.4873 260.307 34.5896 259.629 34.5896Z" fill="#111111"/>
<path d="M273.026 34.5896C272.173 34.5896 271.435 34.4021 270.81 34.0271C270.185 33.6521 269.7 33.1275 269.355 32.4532C269.014 31.779 268.844 30.9911 268.844 30.0896C268.844 29.1881 269.014 28.3983 269.355 27.7203C269.7 27.0422 270.185 26.5157 270.81 26.1407C271.435 25.7657 272.173 25.5782 273.026 25.5782C273.878 25.5782 274.616 25.7657 275.241 26.1407C275.866 26.5157 276.349 27.0422 276.69 27.7203C277.035 28.3983 277.207 29.1881 277.207 30.0896C277.207 30.9911 277.035 31.779 276.69 32.4532C276.349 33.1275 275.866 33.6521 275.241 34.0271C274.616 34.4021 273.878 34.5896 273.026 34.5896ZM273.037 32.9419C273.499 32.9419 273.885 32.815 274.196 32.5612C274.507 32.3036 274.738 31.9589 274.889 31.5271C275.045 31.0953 275.122 30.6142 275.122 30.0839C275.122 29.5498 275.045 29.0669 274.889 28.635C274.738 28.1994 274.507 27.8528 274.196 27.5953C273.885 27.3377 273.499 27.2089 273.037 27.2089C272.563 27.2089 272.17 27.3377 271.855 27.5953C271.545 27.8528 271.312 28.1994 271.156 28.635C271.005 29.0669 270.929 29.5498 270.929 30.0839C270.929 30.6142 271.005 31.0953 271.156 31.5271C271.312 31.9589 271.545 32.3036 271.855 32.5612C272.17 32.815 272.563 32.9419 273.037 32.9419Z" fill="#111111"/>
<path d="M283.374 25.6919V27.2828H278.214V25.6919H283.374ZM279.504 34.4191V24.868C279.504 24.2809 279.625 23.7922 279.868 23.4021C280.114 23.0119 280.444 22.7203 280.857 22.5271C281.269 22.3339 281.728 22.2373 282.232 22.2373C282.588 22.2373 282.904 22.2657 283.18 22.3225C283.457 22.3794 283.661 22.4305 283.794 22.4759L283.385 24.0669C283.298 24.0403 283.188 24.0138 283.055 23.9873C282.923 23.957 282.775 23.9419 282.612 23.9419C282.23 23.9419 281.959 24.0347 281.8 24.2203C281.644 24.4021 281.567 24.6634 281.567 25.0044V34.4191H279.504Z" fill="#111111"/>
<path d="M292.192 34.5725C291.506 34.5725 290.893 34.3964 290.351 34.0441C289.809 33.6919 289.381 33.1805 289.067 32.51C288.752 31.8396 288.595 31.0252 288.595 30.0669C288.595 29.0972 288.754 28.279 289.072 27.6123C289.394 26.9419 289.828 26.4362 290.374 26.0953C290.919 25.7506 291.527 25.5782 292.197 25.5782C292.709 25.5782 293.129 25.6653 293.459 25.8396C293.788 26.01 294.05 26.2165 294.243 26.4589C294.436 26.6975 294.586 26.9229 294.692 27.135H294.777V22.7828H296.839V34.4191H294.817V33.0441H294.692C294.586 33.2562 294.432 33.4816 294.232 33.7203C294.031 33.9551 293.766 34.1559 293.436 34.3225C293.107 34.4892 292.692 34.5725 292.192 34.5725ZM292.766 32.885C293.201 32.885 293.572 32.7676 293.879 32.5328C294.186 32.2941 294.419 31.9627 294.578 31.5384C294.737 31.1142 294.817 30.6199 294.817 30.0555C294.817 29.4911 294.737 29.0006 294.578 28.5839C294.423 28.1672 294.192 27.8434 293.885 27.6123C293.582 27.3812 293.209 27.2657 292.766 27.2657C292.307 27.2657 291.925 27.385 291.618 27.6237C291.311 27.8623 291.08 28.1919 290.925 28.6123C290.769 29.0328 290.692 29.5138 290.692 30.0555C290.692 30.6009 290.769 31.0877 290.925 31.5157C291.084 31.94 291.317 32.2752 291.624 32.5214C291.934 32.7638 292.315 32.885 292.766 32.885Z" fill="#111111"/>
<path d="M301.543 34.5953C300.99 34.5953 300.491 34.4968 300.048 34.2998C299.609 34.099 299.26 33.8036 299.003 33.4134C298.749 33.0233 298.622 32.5422 298.622 31.9703C298.622 31.4778 298.713 31.0706 298.895 30.7487C299.077 30.4267 299.325 30.1691 299.639 29.9759C299.954 29.7828 300.308 29.6369 300.702 29.5384C301.099 29.4362 301.51 29.3623 301.935 29.3169C302.446 29.2638 302.861 29.2165 303.179 29.1748C303.497 29.1294 303.728 29.0612 303.872 28.9703C304.02 28.8756 304.094 28.7297 304.094 28.5328V28.4987C304.094 28.0706 303.967 27.7392 303.713 27.5044C303.459 27.2695 303.094 27.1521 302.616 27.1521C302.113 27.1521 301.713 27.2619 301.418 27.4816C301.126 27.7013 300.929 27.9608 300.827 28.26L298.906 27.9873C299.058 27.457 299.308 27.0138 299.656 26.6578C300.005 26.2979 300.431 26.029 300.935 25.8509C301.438 25.6691 301.995 25.5782 302.605 25.5782C303.026 25.5782 303.444 25.6275 303.861 25.7259C304.277 25.8244 304.658 25.9873 305.003 26.2146C305.348 26.4381 305.624 26.743 305.832 27.1294C306.045 27.5157 306.151 27.9987 306.151 28.5782V34.4191H304.173V33.2203H304.105C303.98 33.4627 303.804 33.69 303.577 33.9021C303.353 34.1104 303.071 34.279 302.73 34.4078C302.393 34.5328 301.997 34.5953 301.543 34.5953ZM302.077 33.0839C302.49 33.0839 302.848 33.0025 303.151 32.8396C303.454 32.6729 303.687 32.4532 303.849 32.1805C304.016 31.9078 304.099 31.6104 304.099 31.2884V30.26C304.035 30.3131 303.925 30.3623 303.77 30.4078C303.618 30.4532 303.448 30.493 303.259 30.5271C303.069 30.5612 302.882 30.5915 302.696 30.618C302.51 30.6445 302.349 30.6672 302.213 30.6862C301.906 30.7278 301.632 30.796 301.389 30.8907C301.147 30.9854 300.955 31.118 300.815 31.2884C300.675 31.4551 300.605 31.671 300.605 31.9362C300.605 32.315 300.743 32.6009 301.02 32.7941C301.296 32.9873 301.649 33.0839 302.077 33.0839Z" fill="#111111"/>
<path d="M309.185 37.6919C308.904 37.6919 308.645 37.6691 308.406 37.6237C308.171 37.582 307.984 37.5328 307.844 37.4759L308.321 35.8737C308.62 35.9608 308.887 36.0025 309.122 35.9987C309.357 35.9949 309.563 35.921 309.741 35.7771C309.923 35.6369 310.077 35.4021 310.202 35.0725L310.378 34.6009L307.213 25.6919H309.395L311.406 32.2828H311.497L313.514 25.6919H315.702L312.207 35.4759C312.045 35.9381 311.829 36.3339 311.56 36.6634C311.291 36.9968 310.961 37.2506 310.571 37.4248C310.185 37.6028 309.723 37.6919 309.185 37.6919Z" fill="#111111"/>
</svg>
