<svg width="65" height="83" viewBox="0 0 65 83" fill="none" xmlns="http://www.w3.org/2000/svg">
<path d="M2.00003 2.82236C2.35934 1.38513 12.7328 2.26874 14.1798 2.26874C19.8911 2.26874 24.8471 2.86493 30.2349 4.91384C32.9498 5.94623 36.034 7.12258 38.3376 8.81641C40.7209 10.5688 42.1589 11.7377 44.6292 13.3412C49.0571 16.2155 51.794 19.5394 54.5944 23.8601C63.1631 37.0803 67.1543 57.1394 58.6851 71.4719C57.6284 73.2603 52.8492 77.6819 53.518 80.0223C53.8355 81.1337 57.5467 79.3355 58.193 79.1919C59.5698 78.886 60.591 78.669 62.0684 78.669C64.6056 78.669 59.7785 78.6762 59.0234 78.9459C57.617 79.4482 56.1781 79.8807 54.8713 80.6067C53.0145 81.6383 52.7092 81.6849 52.1031 79.7455C51.6828 78.4005 49.7498 71.6797 51.2727 70.9183" stroke="#111111" stroke-width="3" stroke-linecap="round"/>
</svg>
