<svg width="16" height="16" viewBox="0 0 16 16" fill="none" xmlns="http://www.w3.org/2000/svg">
<path fill-rule="evenodd" clip-rule="evenodd" d="M1.33398 4.49935C1.33398 3.48683 2.1548 2.66602 3.16732 2.66602H12.834C13.8465 2.66602 14.6673 3.48683 14.6673 4.49935V11.4993C14.6673 12.5119 13.8465 13.3327 12.834 13.3327H3.16732C2.1548 13.3327 1.33398 12.5119 1.33398 11.4993V4.49935ZM3.16732 3.66602C2.70708 3.66602 2.33398 4.03911 2.33398 4.49935V5.79168C3.91598 6.96929 5.87624 7.66602 8.00065 7.66602C10.1251 7.66602 12.0853 6.96929 13.6673 5.79167V4.49935C13.6673 4.03911 13.2942 3.66602 12.834 3.66602H3.16732ZM13.6673 7.00709C12.0325 8.05696 10.0871 8.66602 8.00065 8.66602C5.91415 8.66602 3.96879 8.05696 2.33398 7.00709V11.4993C2.33398 11.9596 2.70708 12.3327 3.16732 12.3327H12.834C13.2942 12.3327 13.6673 11.9596 13.6673 11.4993V7.00709Z" fill="#2a5aeb"/>
</svg>
