<svg width="16" height="16" viewBox="0 0 16 16" fill="none" xmlns="http://www.w3.org/2000/svg">
<path fill-rule="evenodd" clip-rule="evenodd" d="M8.66667 2.5C8.66667 2.22386 8.89053 2 9.16667 2H13.5C13.7761 2 14 2.22386 14 2.5V6.83333C14 7.10948 13.7761 7.33333 13.5 7.33333C13.2239 7.33333 13 7.10948 13 6.83333V3.70711L7.68689 9.02022C7.49162 9.21548 7.17504 9.21548 6.97978 9.02022C6.78452 8.82496 6.78452 8.50838 6.97978 8.31311L12.2929 3H9.16667C8.89053 3 8.66667 2.77614 8.66667 2.5ZM4.56435 3.33333L6.16667 3.33333C6.44281 3.33333 6.66667 3.55719 6.66667 3.83333C6.66667 4.10948 6.44281 4.33333 6.16667 4.33333H4.58333C4.22581 4.33333 3.98585 4.33368 3.80066 4.34787C3.62078 4.36166 3.53414 4.38633 3.47704 4.41334C3.30275 4.49577 3.16244 4.63609 3.08001 4.81037C3.053 4.86747 3.02833 4.95411 3.01454 5.13399C3.00034 5.31918 3 5.55914 3 5.91667V11.3667C3 11.7483 3.00039 12.0044 3.01651 12.2017C3.03214 12.3931 3.06007 12.4846 3.09083 12.545C3.17072 12.7018 3.29821 12.8293 3.45501 12.9092C3.51538 12.9399 3.6069 12.9679 3.79832 12.9835C3.99557 12.9996 4.25172 13 4.63333 13H10.0333C10.415 13 10.6711 12.9996 10.8683 12.9835C11.0598 12.9679 11.1513 12.9399 11.2117 12.9092C11.3685 12.8293 11.4959 12.7018 11.5758 12.545C11.6066 12.4846 11.6345 12.3931 11.6502 12.2017C11.6663 12.0044 11.6667 11.7483 11.6667 11.3667V9.33333C11.6667 9.05719 11.8905 8.83333 12.1667 8.83333C12.4428 8.83333 12.6667 9.05719 12.6667 9.33333V11.387C12.6667 11.7431 12.6667 12.0403 12.6468 12.2831C12.6261 12.5364 12.5814 12.7741 12.4668 12.999C12.2911 13.3439 12.0106 13.6244 11.6656 13.8002C11.4408 13.9147 11.203 13.9595 10.9498 13.9802C10.707 14 10.4097 14 10.0536 14H4.61303C4.25693 14 3.95971 14 3.71689 13.9802C3.46363 13.9595 3.22586 13.9147 3.00102 13.8002C2.65605 13.6244 2.37559 13.3439 2.19982 12.999C2.08526 12.7741 2.04052 12.5364 2.01983 12.2831C1.99999 12.0403 1.99999 11.7431 2 11.387V5.89768C1.99999 5.56403 1.99999 5.28553 2.01747 5.05756C2.03568 4.81997 2.07501 4.59638 2.17602 4.38282C2.35737 3.99939 2.66605 3.6907 3.04948 3.50935C3.26304 3.40835 3.48664 3.36901 3.72423 3.3508C3.95219 3.33332 4.2307 3.33333 4.56435 3.33333Z" fill="#2a5aeb"/>
</svg>
