<svg width="48" height="180" viewBox="0 0 48 180" fill="none" xmlns="http://www.w3.org/2000/svg">
<path d="M7.06089 1.70215C7.06089 10.903 2.60547 20.873 6.0471 30.0507C10.8217 42.7831 19.5071 49.2371 30.6784 55.8085C41.2945 62.0532 46.2607 71.1801 46.2607 83.1057C46.2607 88.6219 45.8531 92.6749 41.8677 96.6604C40.582 97.9461 39.3328 99.2905 38.0002 100.528C35.2559 103.076 30.9542 103.498 27.6371 105.109C23.2134 107.257 16.61 107.136 11.7919 107.136C7.05324 107.136 5.53127 104.304 3.34366 100.415C0.38924 95.1629 2.50526 88.888 8.78809 88.888C17.8637 88.888 24.2708 86.8566 32.3305 92.2298C34.4961 93.6735 36.1229 101.306 36.1229 103.757C36.1229 108.613 36.2809 113.457 35.4094 118.25C34.7713 121.76 31.4988 126.746 29.7022 129.74C27.7688 132.962 26.6586 136.235 25.3091 139.728C23.0348 145.614 24.6332 150.763 24.6332 156.474C24.6332 161.332 26.6608 166.249 26.6608 171.005C26.6608 171.749 27.4872 176.491 27.1865 176.224C25.5042 174.729 24.5774 173.301 23.2815 171.681C22.5351 170.748 20.5469 170.101 19.5643 169.315C18.9084 168.791 16.745 166.535 17.1988 166.762C19.966 168.146 22.645 171.258 25.1589 173.521C26.2739 174.524 27.1773 175.811 28.3505 176.75C30.6143 178.561 29.8254 176.978 30.5658 174.572C31.2062 172.491 30.8409 170.399 31.4294 168.339C31.7085 167.362 34.2846 166.233 34.7711 165.26" stroke="#ffffff" stroke-width="3" stroke-linecap="round"/>
</svg>
